{
  "accessors": [
    {
      "bufferView": 2,
      "componentType": 5126,
      "count": 7112,
      "max": [
        84.60195922851563,
        100.87883758544922,
        24.43317222595215
      ],
      "min": [
        -84.59951782226563,
        -166.75570678710938,
        -24.433164596557617
      ],
      "type": "VEC3"
    },
    {
      "bufferView": 2,
      "byteOffset": 85344,
      "componentType": 5126,
      "count": 7112,
      "max": [
        1.0,
        1.0,
        0.9999584555625916
      ],
      "min": [
        -1.0,
        -1.0,
        -0.9999997019767761
      ],
      "type": "VEC3"
    },
    {
      "bufferView": 3,
      "componentType": 5126,
      "count": 7112,
      "max": [
        1.0,
        0.9999873638153076,
        0.9999854564666748,
        1.0
      ],
      "min": [
        -1.0,
        -0.9999615550041199,
        -0.999999463558197,
        -1.0
      ],
      "type": "VEC4"
    },
    {
      "bufferView": 1,
      "componentType": 5126,
      "count": 7112,
      "max": [
        0.9989911317825317,
        0.9979305267333984
      ],
      "min": [
        0.0010901689529418945,
        0.0009908080101013184
      ],
      "type": "VEC2"
    },
    {
      "bufferView": 0,
      "componentType": 5125,
      "count": 13542,
      "type": "SCALAR"
    },
    {
      "bufferView": 2,
      "byteOffset": 170688,
      "componentType": 5126,
      "count": 204,
      "max": [
        27.986085891723633,
        122.750732421875,
        -1.0291109085083008
      ],
      "min": [
        -28.031404495239258,
        81.7721939086914,
        -14.891833305358887
      ],
      "type": "VEC3"
    },
    {
      "bufferView": 2,
      "byteOffset": 173136,
      "componentType": 5126,
      "count": 204,
      "max": [
        1.0,
        4.147896959239006e-07,
        1.0
      ],
      "min": [
        -1.0,
        -1.012247253129317e-06,
        -1.0
      ],
      "type": "VEC3"
    },
    {
      "bufferView": 1,
      "byteOffset": 56896,
      "componentType": 5126,
      "count": 204,
      "max": [
        0.9979999661445618,
        0.4408664405345917
      ],
      "min": [
        0.0020000000949949026,
        0.0020000000949949026
      ],
      "type": "VEC2"
    },
    {
      "bufferView": 0,
      "byteOffset": 54168,
      "componentType": 5125,
      "count": 576,
      "type": "SCALAR"
    },
    {
      "bufferView": 4,
      "componentType": 5126,
      "count": 50,
      "max": [
        1.6333333253860474
      ],
      "min": [
        0.0
      ],
      "type": "SCALAR"
    },
    {
      "bufferView": 5,
      "componentType": 5126,
      "count": 50,
      "max": [
        1.1368683772161603e-13,
        0.0,
        2.88001610407318e-13
      ],
      "min": [
        1.1368683772161603e-13,
        -1.1219406127929688,
        2.88001610407318e-13
      ],
      "type": "VEC3"
    },
    {
      "bufferView": 4,
      "byteOffset": 200,
      "componentType": 5126,
      "count": 51,
      "max": [
        1.6666666269302368
      ],
      "min": [
        0.0
      ],
      "type": "SCALAR"
    },
    {
      "bufferView": 5,
      "byteOffset": 600,
      "componentType": 5126,
      "count": 51,
      "max": [
        -0.022649478167295456,
        -7.960461139678955,
        -102.0
      ],
      "min": [
        -0.022649478167295456,
        -9.0824613571167,
        -107.0
      ],
      "type": "VEC3"
    }
  ],
  "animations": [
    {
      "channels": [
        {
          "sampler": 0,
          "target": {
            "node": 4,
            "path": "translation"
          }
        },
        {
          "sampler": 1,
          "target": {
            "node": 7,
            "path": "translation"
          }
        }
      ],
      "name": "Take 001",
      "samplers": [
        {
          "input": 9,
          "interpolation": "LINEAR",
          "output": 10
        },
        {
          "input": 11,
          "interpolation": "LINEAR",
          "output": 12
        }
      ]
    }
  ],
  "asset": {
    "extras": {
      "author": "Ruslan Malovsky (https://sketchfab.com/malovsky)",
      "license": "SKETCHFAB Standard (https://sketchfab.com/licenses)",
      "source": "https://sketchfab.com/3d-models/space-fighter-sirius-r8-dd94aaf0957f4ff5af3890b7c1f30631",
      "title": "Space Fighter - Sirius R8"
    },
    "generator": "Sketchfab-12.68.0",
    "version": "2.0"
  },
  "bufferViews": [
    {
      "buffer": 0,
      "byteLength": 56472,
      "name": "floatBufferViews",
      "target": 34963
    },
    {
      "buffer": 0,
      "byteLength": 58528,
      "byteOffset": 56472,
      "byteStride": 8,
      "name": "floatBufferViews",
      "target": 34962
    },
    {
      "buffer": 0,
      "byteLength": 175584,
      "byteOffset": 115000,
      "byteStride": 12,
      "name": "floatBufferViews",
      "target": 34962
    },
    {
      "buffer": 0,
      "byteLength": 113792,
      "byteOffset": 290584,
      "byteStride": 16,
      "name": "floatBufferViews",
      "target": 34962
    },
    {
      "buffer": 0,
      "byteLength": 404,
      "byteOffset": 404376,
      "name": "floatBufferViews"
    },
    {
      "buffer": 0,
      "byteLength": 1212,
      "byteOffset": 404780,
      "byteStride": 12,
      "name": "floatBufferViews"
    }
  ],
  "buffers": [
    {
      "byteLength": 405992,
      "uri": "scene.bin"
    }
  ],
  "images": [
    {
      "uri": "textures/01_-_Default_baseColor.jpeg"
    },
    {
      "uri": "textures/01_-_Default_metallicRoughness.png"
    },
    {
      "uri": "textures/01_-_Default_emissive.jpeg"
    },
    {
      "uri": "textures/01_-_Default_normal.jpeg"
    },
    {
      "uri": "textures/02_-_Default_baseColor.png"
    },
    {
      "uri": "textures/02_-_Default_metallicRoughness.png"
    },
    {
      "uri": "textures/02_-_Default_emissive.jpeg"
    }
  ],
  "materials": [
    {
      "doubleSided": true,
      "emissiveFactor": [
        1.0,
        1.0,
        1.0
      ],
      "emissiveTexture": {
        "index": 2
      },
      "name": "01_-_Default",
      "normalTexture": {
        "index": 3
      },
      "occlusionTexture": {
        "index": 1
      },
      "pbrMetallicRoughness": {
        "baseColorTexture": {
          "index": 0
        },
        "metallicRoughnessTexture": {
          "index": 1
        }
      }
    },
    {
      "alphaMode": "BLEND",
      "doubleSided": true,
      "emissiveFactor": [
        0.9927591463414633,
        0.9927591463414633,
        0.9927591463414633
      ],
      "emissiveTexture": {
        "index": 6
      },
      "name": "02_-_Default",
      "pbrMetallicRoughness": {
        "baseColorTexture": {
          "index": 4
        },
        "metallicRoughnessTexture": {
          "index": 5
        }
      }
    }
  ],
  "meshes": [
    {
      "name": "Object317_01 - Default_0",
      "primitives": [
        {
          "attributes": {
            "NORMAL": 1,
            "POSITION": 0,
            "TANGENT": 2,
            "TEXCOORD_0": 3
          },
          "indices": 4,
          "material": 0,
          "mode": 4
        }
      ]
    },
    {
      "name": "Object318_02 - Default_0",
      "primitives": [
        {
          "attributes": {
            "NORMAL": 6,
            "POSITION": 5,
            "TEXCOORD_0": 7
          },
          "indices": 8,
          "material": 1,
          "mode": 4
        }
      ]
    }
  ],
  "nodes": [
    {
      "children": [
        1
      ],
      "matrix": [
        1.0,
        0.0,
        0.0,
        0.0,
        0.0,
        2.220446049250313e-16,
        -1.0,
        0.0,
        0.0,
        1.0,
        2.220446049250313e-16,
        0.0,
        0.0,
        0.0,
        0.0,
        1.0
      ],
      "name": "Sketchfab_model"
    },
    {
      "children": [
        2
      ],
      "matrix": [
        1.0,
        0.0,
        0.0,
        0.0,
        0.0,
        0.0,
        1.0,
        0.0,
        0.0,
        -1.0,
        0.0,
        0.0,
        0.0,
        0.0,
        0.0,
        1.0
      ],
      "name": "Sirius R8_SF.FBX"
    },
    {
      "children": [
        3
      ],
      "name": "Object_2"
    },
    {
      "children": [
        4,
        7
      ],
      "name": "RootNode"
    },
    {
      "children": [
        5
      ],
      "name": "Object317",
      "rotation": [
        -2.669255749765398e-08,
        -2.669255572129714e-08,
        0.7071067690849304,
        0.7071068286895752
      ],
      "translation": [
        1.1368683772161603e-13,
        0.0,
        2.88001610407318e-13
      ]
    },
    {
      "children": [
        6
      ],
      "matrix": [
        6.123233995736764e-17,
        -0.9999999999999996,
        2.9802322735571995e-08,
        0.0,
        6.123234178223361e-17,
        -2.9802322735571995e-08,
        -0.9999999999999996,
        0.0,
        1.0,
        6.123234178223361e-17,
        6.123233995736764e-17,
        0.0,
        -3.814697265625e-06,
        1.1368683094535245e-13,
        -4.547472966763555e-13,
        1.0
      ],
      "name": "Object_5"
    },
    {
      "mesh": 0,
      "name": "Object317_01 - Default_0"
    },
    {
      "children": [
        8
      ],
      "name": "Object318",
      "rotation": [
        -3.161013850672134e-08,
        -3.161013495400766e-08,
        0.7071067094802856,
        0.7071068286895752
      ],
      "translation": [
        -0.022649478167295456,
        -7.960461139678955,
        -107.0
      ]
    },
    {
      "children": [
        9
      ],
      "matrix": [
        6.123233995736764e-17,
        -0.9999999999999996,
        2.9802322735571995e-08,
        0.0,
        6.123234178223361e-17,
        -2.9802322735571995e-08,
        -0.9999999999999996,
        0.0,
        1.0,
        6.123234178223361e-17,
        6.123233995736764e-17,
        0.0,
        7.9604692459106445,
        -0.022659538313746452,
        102.26145935058594,
        1.0
      ],
      "name": "Object_8"
    },
    {
      "mesh": 1,
      "name": "Object318_02 - Default_0"
    }
  ],
  "samplers": [
    {
      "magFilter": 9729,
      "minFilter": 9987,
      "wrapS": 10497,
      "wrapT": 10497
    }
  ],
  "scene": 0,
  "scenes": [
    {
      "name": "Sketchfab_Scene",
      "nodes": [
        0
      ]
    }
  ],
  "textures": [
    {
      "sampler": 0,
      "source": 0
    },
    {
      "sampler": 0,
      "source": 1
    },
    {
      "sampler": 0,
      "source": 2
    },
    {
      "sampler": 0,
      "source": 3
    },
    {
      "sampler": 0,
      "source": 4
    },
    {
      "sampler": 0,
      "source": 5
    },
    {
      "sampler": 0,
      "source": 6
    }
  ]
}
